<svg width="103" height="55" viewBox="0 0 103 55" fill="none" xmlns="http://www.w3.org/2000/svg">
<path d="M13.7143 0.142822H20.5714V6.99997H13.7143V0.142822ZM6.85714 0.142822H13.7143V6.99997H6.85714V0.142822ZM6.85714 6.99997H13.7143V13.8571H6.85714V6.99997ZM13.7143 6.99997H20.5714V13.8571H13.7143V6.99997ZM20.5714 0.142822H27.4286V6.99997H20.5714V0.142822ZM27.4286 0.142822H34.2857V6.99997H27.4286V0.142822ZM34.2857 0.142822H41.1429V6.99997H34.2857V0.142822ZM34.2857 6.99997H41.1429V13.8571H34.2857V6.99997ZM27.4286 6.99997H34.2857V13.8571H27.4286V6.99997ZM20.5714 20.7143H41.1429V27.5714H20.5714V20.7143ZM41.1429 6.99997H48V13.8571H41.1429V6.99997ZM41.1429 13.8571H48V20.7143H41.1429V13.8571ZM41.1429 20.7143H48V27.5714H41.1429V20.7143ZM41.1429 27.5714H48V34.4286H41.1429V27.5714ZM41.1429 34.4286H48V41.2857H41.1429V34.4286ZM41.1429 41.2857H48V48.1429H41.1429V41.2857ZM20.5714 41.2857H41.1429V48.1429H34.2857L20.5714 41.2857ZM20.5714 34.4286H41.1429V41.2857H20.5714V34.4286ZM20.5714 27.5714H41.1429V34.4286H20.5714V27.5714ZM34.2857 13.8571H41.1429V20.7143H20.5714L34.2857 13.8571ZM13.7143 41.2857H20.5714L34.2857 48.1429H27.4286L13.7143 41.2857ZM34.2857 48.1429H41.1429V55H34.2857V48.1429ZM27.4286 48.1429H34.2857V55H27.4286V48.1429ZM20.5714 48.1429H27.4286V55H20.5714V48.1429ZM13.7143 48.1429H20.5714V55H13.7143V48.1429ZM6.85714 48.1429H13.7143V55H6.85714V48.1429ZM6.85714 41.2857H13.7143V48.1429H6.85714V41.2857ZM13.7143 41.2857H20.5714L20.5714 48.1429H13.7143V41.2857ZM6.85714 34.4286H13.7143V41.2857H6.85714V34.4286ZM0 41.2857H6.85714V48.1429H0V41.2857ZM0 34.4286H6.85714V41.2857H0V34.4286ZM0 27.5714H6.85714V34.4286H0V27.5714ZM0 20.7143H6.85714V27.5714H0V20.7143ZM0 13.8571H6.85714V20.7143H0V13.8571ZM0 6.99997H6.85714V13.8571H0V6.99997ZM6.85714 13.8571H13.7143V20.7143H6.85714V13.8571ZM6.85714 20.7143H13.7143V27.5714H6.85714V20.7143ZM6.85714 27.5714H13.7143V34.4286H6.85714V27.5714ZM20.5714 41.2857H13.7143L27.4286 48.1429H20.5714L20.5714 41.2857ZM20.5714 6.99997H27.4286V13.8571H20.5714V6.99997ZM68.5893 0.142822H75.4464V6.99997H68.5893V0.142822ZM61.7321 0.142822H68.5893V6.99997H61.7321V0.142822ZM61.7321 6.99997H68.5893V13.8571H61.7321V6.99997ZM68.5893 6.99997H75.4464V13.8571H68.5893V6.99997ZM75.4464 0.142822H82.3036V6.99997H75.4464V0.142822ZM82.3036 0.142822H89.1607V6.99997H82.3036V0.142822ZM89.1607 0.142822H96.0179V6.99997H89.1607V0.142822ZM89.1607 6.99997H96.0179V13.8571H89.1607V6.99997ZM82.3036 6.99997H89.1607V13.8571H82.3036V6.99997ZM75.4464 20.7143H96.0179V27.5714H75.4464V20.7143ZM96.0179 6.99997H102.875V13.8571H96.0179V6.99997ZM96.0179 13.8571H102.875V20.7143H96.0179V13.8571ZM96.0179 20.7143H102.875V27.5714H96.0179V20.7143ZM96.0179 27.5714H102.875V34.4286H96.0179V27.5714ZM96.0179 34.4286H102.875V41.2857H96.0179V34.4286ZM96.0179 41.2857H102.875V48.1429H96.0179V41.2857ZM75.4464 41.2857H96.0179V48.1429H89.1607L75.4464 41.2857ZM75.4464 34.4286H96.0179V41.2857H75.4464V34.4286ZM75.4464 27.5714H96.0179V34.4286H75.4464V27.5714ZM89.1607 13.8571H96.0179V20.7143H75.4464L89.1607 13.8571ZM68.5893 41.2857H75.4464L89.1607 48.1429H82.3036L68.5893 41.2857ZM89.1607 48.1429H96.0179V55H89.1607V48.1429ZM82.3036 48.1429H89.1607V55H82.3036V48.1429ZM75.4464 48.1429H82.3036V55H75.4464V48.1429ZM68.5893 48.1429H75.4464V55H68.5893V48.1429ZM61.7321 48.1429H68.5893V55H61.7321V48.1429ZM61.7321 41.2857H68.5893V48.1429H61.7321V41.2857ZM68.5893 41.2857H75.4464V48.1429H68.5893V41.2857ZM61.7321 34.4286H68.5893V41.2857H61.7321V34.4286ZM54.875 41.2857H61.7321V48.1429H54.875V41.2857ZM54.875 34.4286H61.7321V41.2857H54.875V34.4286ZM54.875 27.5714H61.7321V34.4286H54.875V27.5714ZM54.875 20.7143H61.7321V27.5714H54.875V20.7143ZM54.875 13.8571H61.7321V20.7143H54.875V13.8571ZM54.875 6.99997H61.7321V13.8571H54.875V6.99997ZM61.7321 13.8571H68.5893V20.7143H61.7321V13.8571ZM61.7321 20.7143H68.5893V27.5714H61.7321V20.7143ZM61.7321 27.5714H68.5893V34.4286H61.7321V27.5714ZM75.4464 41.2857H68.5893L82.3036 48.1429H75.4464V41.2857ZM75.4464 6.99997H82.3036V13.8571H75.4464V6.99997Z" fill="white"/>
</svg>
