<svg width="809" height="129" viewBox="0 0 809 129" fill="none" xmlns="http://www.w3.org/2000/svg">
<path d="M0 0H12.8274V12.8199H0V0ZM12.8274 0H25.6549V12.8199H12.8274V0ZM12.8274 12.8199H25.6549V25.6398H12.8274V12.8199ZM12.8274 25.6398H25.6549V38.4596H12.8274V25.6398ZM12.8274 38.4596H25.6549V51.2794H12.8274V38.4596ZM0 38.4596H12.8274V51.2794H0V38.4596ZM0 25.6398H12.8274V38.4596H0V25.6398ZM0 12.8199H12.8274V25.6398H0V12.8199ZM0 51.2794H12.8274V64.0994H0V51.2794ZM0 64.0994H12.8274V76.9192H0V64.0994ZM0 76.9192H12.8274V89.7392H0V76.9192ZM12.8274 64.0994H25.6549V76.9192H12.8274V64.0994ZM12.8274 51.2794H25.6549V64.0994H12.8274V51.2794ZM12.8274 76.9192H25.6549V89.7392H12.8274V76.9192ZM12.8274 89.7392H25.6549V102.559H12.8274V89.7392ZM0 102.559H12.8274V115.379H0V102.559ZM0 89.7392H12.8274V102.559H0V89.7392ZM0 115.379H12.8274V128.199H0V115.379ZM12.8274 115.379H25.6549V128.199H12.8274V115.379ZM12.8274 102.559H25.6549V115.379H12.8274V102.559ZM25.6549 0H38.4823V12.8199H25.6549V0ZM38.4823 0H51.3099V12.8199H38.4823V0ZM51.3099 0H64.1372V12.8199H51.3099V0ZM64.1372 0H76.9648V12.8199H64.1372V0ZM51.3099 12.8199H64.1372V25.6398H51.3099V12.8199ZM38.4823 12.8199H51.3099V25.6398H38.4823V12.8199ZM25.6549 12.8199H38.4823V25.6398H25.6549V12.8199ZM25.6549 64.0994H38.4823V76.9192H25.6549V64.0994ZM38.4823 51.2794H51.3099V64.0994H38.4823V51.2794ZM25.6549 51.2794H38.4823V64.0994H25.6549V51.2794ZM38.4823 64.0994H51.3099V76.9192H38.4823V64.0994ZM64.1372 12.8199H76.9648V25.6398H64.1372V12.8199ZM51.3099 51.2794H64.1372V64.0994H51.3099V51.2794ZM51.3099 64.0994H64.1372V76.9192H51.3099V64.0994ZM89.7921 38.4596H102.62V51.2794H89.7921V38.4596ZM89.7921 25.6398H102.62V38.4596H89.7921V25.6398ZM102.62 25.6398H115.447V38.4596H102.62V25.6398ZM102.62 38.4596H115.447V51.2794H102.62V38.4596ZM102.62 51.2794H115.447V64.0994H102.62V51.2794ZM102.62 64.0994H115.447V76.9192H102.62V64.0994ZM102.62 76.9192H115.447V89.7392H102.62V76.9192ZM89.7921 76.9192H102.62V89.7392H89.7921V76.9192ZM89.7921 64.0994H102.62V76.9192H89.7921V64.0994ZM89.7921 51.2794H102.62V64.0994H89.7921V51.2794ZM89.7921 89.7392H102.62V102.559H89.7921V89.7392ZM102.62 89.7392H115.447V102.559H102.62V89.7392ZM102.62 102.559H115.447V115.379H102.62V102.559ZM102.62 115.379H115.447V128.199H102.62V115.379ZM89.7921 115.379H102.62V128.199H89.7921V115.379ZM89.7921 102.559H102.62V115.379H89.7921V102.559ZM115.447 38.4596H128.274V51.2794H115.447V38.4596ZM128.274 38.4596H141.102V51.2794H128.274V38.4596ZM141.102 38.4596H153.929V51.2794H141.102V38.4596ZM141.102 25.6398H153.929V38.4596H141.102V25.6398ZM128.274 25.6398H141.102V38.4596H128.274V25.6398ZM115.447 51.2794H128.274V64.0994H115.447V51.2794ZM153.929 38.4596H166.757V51.2794H153.929V38.4596ZM141.102 51.2794H153.929V64.0994H141.102V51.2794ZM205.239 25.6398H218.066V38.4596H205.239V25.6398ZM192.411 25.6398H205.239V38.4596H192.411V25.6398ZM192.411 38.4596H205.239V51.2794H192.411V38.4596ZM205.239 38.4596H218.066V51.2794H205.239V38.4596ZM218.066 25.6398H230.895V38.4596H218.066V25.6398ZM230.895 25.6398H243.722V38.4596H230.895V25.6398ZM243.722 25.6398H256.549V38.4596H243.722V25.6398ZM243.722 38.4596H256.549V51.2794H243.722V38.4596ZM230.895 38.4596H243.722V51.2794H230.895V38.4596ZM256.549 38.4596H269.376V51.2794H256.549V38.4596ZM256.549 51.2794H269.376V64.0994H256.549V51.2794ZM256.549 102.559H269.376V115.379H256.549V102.559ZM243.722 102.559H256.549V115.379H243.722V102.559ZM243.722 51.2794H256.549V64.0994H243.722V51.2794ZM230.895 102.559H243.722V115.379H230.895V102.559ZM243.722 115.379H256.549V128.199H243.722V115.379ZM230.895 115.379H243.722V128.199H230.895V115.379ZM218.066 115.379H230.895V128.199H218.066V115.379ZM205.239 115.379H218.066V128.199H205.239V115.379ZM192.411 115.379H205.239V128.199H192.411V115.379ZM192.411 102.559H205.239V115.379H192.411V102.559ZM205.239 102.559H218.066V115.379H205.239V102.559ZM192.411 89.7392H205.239V102.559H192.411V89.7392ZM179.584 102.559H192.411V115.379H179.584V102.559ZM179.584 89.7392H192.411V102.559H179.584V89.7392ZM179.584 76.9192H192.411V89.7392H179.584V76.9192ZM179.584 64.0994H192.411V76.9192H179.584V64.0994ZM179.584 51.2794H192.411V64.0994H179.584V51.2794ZM179.584 38.4596H192.411V51.2794H179.584V38.4596ZM192.411 51.2794H205.239V64.0994H192.411V51.2794ZM192.411 64.0994H205.239V76.9192H192.411V64.0994ZM192.411 76.9192H205.239V89.7392H192.411V76.9192ZM218.066 102.559H230.895V115.379H218.066V102.559ZM218.066 38.4596H230.895V51.2794H218.066V38.4596ZM243.722 64.0994H256.549V76.9192H243.722V64.0994ZM256.549 64.0994H269.376V76.9192H256.549V64.0994ZM205.239 76.9192H218.066V89.7392H205.239V76.9192ZM218.066 76.9192H230.895V89.7392H218.066V76.9192ZM230.895 76.9192H243.722V89.7392H230.895V76.9192ZM243.722 76.9192H256.549V89.7392H243.722V76.9192ZM256.549 76.9192H269.376V89.7392H256.549V76.9192ZM230.895 64.0994H243.722V76.9192H230.895V64.0994ZM218.066 64.0994H230.895V76.9192H218.066V64.0994ZM205.239 64.0994H218.066V76.9192H205.239V64.0994ZM282.237 38.4596H295.064V51.2794H282.237V38.4596ZM282.237 25.6398H295.064V38.4596H282.237V25.6398ZM295.064 25.6398H307.892V38.4596H295.064V25.6398ZM295.064 38.4596H307.892V51.2794H295.064V38.4596ZM295.064 51.2794H307.892V64.0994H295.064V51.2794ZM295.064 64.0994H307.892V76.9192H295.064V64.0994ZM295.064 76.9192H307.892V89.7392H295.064V76.9192ZM282.237 76.9192H295.064V89.7392H282.237V76.9192ZM282.237 64.0994H295.064V76.9192H282.237V64.0994ZM282.237 51.2794H295.064V64.0994H282.237V51.2794ZM282.237 89.7392H295.064V102.559H282.237V89.7392ZM295.064 89.7392H307.892V102.559H295.064V89.7392ZM295.064 102.559H307.892V115.379H295.064V102.559ZM295.064 115.379H307.892V128.199H295.064V115.379ZM282.237 115.379H295.064V128.199H282.237V115.379ZM282.237 102.559H295.064V115.379H282.237V102.559ZM346.375 115.379H359.202V128.199H346.375V115.379ZM359.202 115.379H372.029V128.199H359.202V115.379ZM359.202 102.559H372.029V115.379H359.202V102.559ZM359.202 89.7392H372.029V102.559H359.202V89.7392ZM359.202 76.9192H372.029V89.7392H359.202V76.9192ZM359.202 64.0994H372.029V76.9192H359.202V64.0994ZM359.202 51.2794H372.029V64.0994H359.202V51.2794ZM359.202 38.4596H372.029V51.2794H359.202V38.4596ZM346.375 64.0994H359.202V76.9192H346.375V64.0994ZM346.375 76.9192H359.202V89.7392H346.375V76.9192ZM346.375 89.7392H359.202V102.559H346.375V89.7392ZM346.375 102.559H359.202V115.379H346.375V102.559ZM346.375 51.2794H359.202V64.0994H346.375V51.2794ZM307.892 38.4596H320.719V51.2794H307.892V38.4596ZM320.719 38.4596H333.548V51.2794H320.719V38.4596ZM333.548 38.4596H346.375V51.2794H333.548V38.4596ZM333.548 25.6398H346.375V38.4596H333.548V25.6398ZM346.375 25.6398H359.202V38.4596H346.375V25.6398ZM346.375 38.4596H359.202V51.2794H346.375V38.4596ZM320.719 25.6398H333.548V38.4596H320.719V25.6398ZM384.89 38.4596H397.717V51.2794H384.89V38.4596ZM397.717 51.2794H410.545V64.0994H397.717V51.2794ZM384.89 51.2794H397.717V64.0994H384.89V51.2794ZM384.89 64.0994H397.717V76.9192H384.89V64.0994ZM397.717 64.0994H410.545V76.9192H397.717V64.0994ZM397.717 76.9192H410.545V89.7392H397.717V76.9192ZM410.545 76.9192H423.372V89.7392H410.545V76.9192ZM423.372 76.9192H436.201V89.7392H423.372V76.9192ZM436.201 64.0994H449.028V76.9192H436.201V64.0994ZM423.372 64.0994H436.201V76.9192H423.372V64.0994ZM410.545 64.0994H423.372V76.9192H410.545V64.0994ZM436.201 76.9192H449.028V89.7392H436.201V76.9192ZM449.028 76.9192H461.855V89.7392H449.028V76.9192ZM449.028 89.7392H461.855V102.559H449.028V89.7392ZM436.201 89.7392H449.028V102.559H436.201V89.7392ZM436.201 102.559H449.028V115.379H436.201V102.559ZM449.028 102.559H461.855V115.379H449.028V102.559ZM436.201 115.379H449.028V128.199H436.201V115.379ZM423.372 102.559H436.201V115.379H423.372V102.559ZM410.545 102.559H423.372V115.379H410.545V102.559ZM397.717 102.559H410.545V115.379H397.717V102.559ZM384.89 102.559H397.717V115.379H384.89V102.559ZM397.717 115.379H410.545V128.199H397.717V115.379ZM410.545 115.379H423.372V128.199H410.545V115.379ZM423.372 115.379H436.201V128.199H423.372V115.379ZM449.028 38.4596H461.855V51.2794H449.028V38.4596ZM436.201 38.4596H449.028V51.2794H436.201V38.4596ZM436.201 25.6398H449.028V38.4596H436.201V25.6398ZM423.372 25.6398H436.201V38.4596H423.372V25.6398ZM410.545 25.6398H423.372V38.4596H410.545V25.6398ZM397.717 25.6398H410.545V38.4596H397.717V25.6398ZM397.717 38.4596H410.545V51.2794H397.717V38.4596ZM410.545 38.4596H423.372V51.2794H410.545V38.4596ZM423.372 38.4596H436.201V51.2794H423.372V38.4596ZM474.682 0H487.51V12.8199H474.682V0ZM487.51 0H500.337V12.8199H487.51V0ZM500.337 0H513.164V12.8199H500.337V0ZM513.164 0H525.993V12.8199H513.164V0ZM525.993 0H538.82V12.8199H525.993V0ZM538.82 0H551.647V12.8199H538.82V0ZM538.82 12.8199H551.647V25.6398H538.82V12.8199ZM525.993 12.8199H538.82V25.6398H525.993V12.8199ZM513.164 12.8199H525.993V25.6398H513.164V12.8199ZM500.337 12.8199H513.164V25.6398H500.337V12.8199ZM487.51 12.8199H500.337V25.6398H487.51V12.8199ZM474.682 12.8199H487.51V25.6398H474.682V12.8199ZM551.647 12.8199H564.475V25.6398H551.647V12.8199ZM538.82 25.6398H551.647V38.4596H538.82V25.6398ZM551.647 25.6398H564.475V38.4596H551.647V25.6398ZM551.647 38.4596H564.475V51.2794H551.647V38.4596ZM551.647 51.2794H564.475V64.0994H551.647V51.2794ZM538.82 51.2794H551.647V64.0994H538.82V51.2794ZM538.82 38.4596H551.647V51.2794H538.82V38.4596ZM538.82 64.0994H551.647V76.9192H538.82V64.0994ZM538.82 76.9192H551.647V89.7392H538.82V76.9192ZM525.993 76.9192H538.82V89.7392H525.993V76.9192ZM525.993 64.0994H538.82V76.9192H525.993V64.0994ZM513.164 64.0994H525.993V76.9192H513.164V64.0994ZM513.164 76.9192H525.993V89.7392H513.164V76.9192ZM500.337 76.9192H513.164V89.7392H500.337V76.9192ZM500.337 64.0994H513.164V76.9192H500.337V64.0994ZM487.51 64.0994H500.337V76.9192H487.51V64.0994ZM474.682 64.0994H487.51V76.9192H474.682V64.0994ZM474.682 76.9192H487.51V89.7392H474.682V76.9192ZM487.51 76.9192H500.337V89.7392H487.51V76.9192ZM474.682 25.6398H487.51V38.4596H474.682V25.6398ZM487.51 25.6398H500.337V38.4596H487.51V25.6398ZM487.51 38.4596H500.337V51.2794H487.51V38.4596ZM487.51 51.2794H500.337V64.0994H487.51V51.2794ZM474.682 38.4596H487.51V51.2794H474.682V38.4596ZM474.682 51.2794H487.51V64.0994H474.682V51.2794ZM474.682 89.7392H487.51V102.559H474.682V89.7392ZM487.51 89.7392H500.337V102.559H487.51V89.7392ZM487.51 102.559H500.337V115.379H487.51V102.559ZM487.51 115.379H500.337V128.199H487.51V115.379ZM474.682 115.379H487.51V128.199H474.682V115.379ZM474.682 102.559H487.51V115.379H474.682V102.559ZM551.647 64.0994H564.475V76.9192H551.647V64.0994ZM602.99 25.6398H615.817V38.4596H602.99V25.6398ZM590.163 25.6398H602.99V38.4596H590.163V25.6398ZM590.163 38.4596H602.99V51.2794H590.163V38.4596ZM602.99 38.4596H615.817V51.2794H602.99V38.4596ZM615.817 25.6398H628.646V38.4596H615.817V25.6398ZM628.646 25.6398H641.473V38.4596H628.646V25.6398ZM641.473 25.6398H654.3V38.4596H641.473V25.6398ZM641.473 38.4596H654.3V51.2794H641.473V38.4596ZM628.646 38.4596H641.473V51.2794H628.646V38.4596ZM615.817 64.0994H654.3V76.9192H615.817V64.0994ZM654.3 38.4596H667.128V51.2794H654.3V38.4596ZM654.3 51.2794H667.128V64.0994H654.3V51.2794ZM654.3 64.0994H667.128V76.9192H654.3V64.0994ZM654.3 76.9192H667.128V89.7392H654.3V76.9192ZM654.3 89.7392H667.128V102.559H654.3V89.7392ZM654.3 102.559H667.128V115.379H654.3V102.559ZM615.817 102.559H654.3V115.379H641.473L615.817 102.559ZM615.817 89.7392H654.3V102.559H615.817V89.7392ZM615.817 76.9192H654.3V89.7392H615.817V76.9192ZM641.473 51.2794H654.3V64.0994H615.817L641.473 51.2794ZM602.99 102.559H615.817L641.473 115.379H628.646L602.99 102.559ZM641.473 115.379H654.3V128.199H641.473V115.379ZM628.646 115.379H641.473V128.199H628.646V115.379ZM615.817 115.379H628.646V128.199H615.817V115.379ZM602.99 115.379H615.817V128.199H602.99V115.379ZM590.163 115.379H602.99V128.199H590.163V115.379ZM590.163 102.559H602.99V115.379H590.163V102.559ZM602.99 102.559H615.817L615.817 115.379H602.99V102.559ZM590.163 89.7392H602.99V102.559H590.163V89.7392ZM577.335 102.559H590.163V115.379H577.335V102.559ZM577.335 89.7392H590.163V102.559H577.335V89.7392ZM577.335 76.9192H590.163V89.7392H577.335V76.9192ZM577.335 64.0994H590.163V76.9192H577.335V64.0994ZM577.335 51.2794H590.163V64.0994H577.335V51.2794ZM577.335 38.4596H590.163V51.2794H577.335V38.4596ZM590.163 51.2794H602.99V64.0994H590.163V51.2794ZM590.163 64.0994H602.99V76.9192H590.163V64.0994ZM590.163 76.9192H602.99V89.7392H590.163V76.9192ZM615.817 102.559H602.99L628.646 115.379H615.817L615.817 102.559ZM615.817 38.4596H628.646V51.2794H615.817V38.4596ZM705.643 25.6398H718.47V38.4596H705.643V25.6398ZM692.816 25.6398H705.643V38.4596H692.816V25.6398ZM692.816 38.4596H705.643V51.2794H692.816V38.4596ZM705.643 38.4596H718.47V51.2794H705.643V38.4596ZM718.47 25.6398H731.299V38.4596H718.47V25.6398ZM731.299 25.6398H744.126V38.4596H731.299V25.6398ZM744.126 25.6398H756.953V38.4596H744.126V25.6398ZM744.126 38.4596H756.953V51.2794H744.126V38.4596ZM731.299 38.4596H744.126V51.2794H731.299V38.4596ZM718.47 64.0994H756.953V76.9192H718.47V64.0994ZM756.953 38.4596H769.781V51.2794H756.953V38.4596ZM756.953 51.2794H769.781V64.0994H756.953V51.2794ZM756.953 64.0994H769.781V76.9192H756.953V64.0994ZM756.953 76.9192H769.781V89.7392H756.953V76.9192ZM756.953 89.7392H769.781V102.559H756.953V89.7392ZM756.953 102.559H769.781V115.379H756.953V102.559ZM718.47 102.559H756.953V115.379H744.126L718.47 102.559ZM718.47 89.7392H756.953V102.559H718.47V89.7392ZM718.47 76.9192H756.953V89.7392H718.47V76.9192ZM744.126 51.2794H756.953V64.0994H718.47L744.126 51.2794ZM705.643 102.559H718.47L744.126 115.379H731.299L705.643 102.559ZM744.126 115.379H756.953V128.199H744.126V115.379ZM731.299 115.379H744.126V128.199H731.299V115.379ZM718.47 115.379H731.299V128.199H718.47V115.379ZM705.643 115.379H718.47V128.199H705.643V115.379ZM692.816 115.379H705.643V128.199H692.816V115.379ZM692.816 102.559H705.643V115.379H692.816V102.559ZM705.643 102.559H718.47L718.47 115.379H705.643V102.559ZM692.816 89.7392H705.643V102.559H692.816V89.7392ZM679.988 102.559H692.816V115.379H679.988V102.559ZM679.988 89.7392H692.816V102.559H679.988V89.7392ZM679.988 76.9192H692.816V89.7392H679.988V76.9192ZM679.988 64.0994H692.816V76.9192H679.988V64.0994ZM679.988 51.2794H692.816V64.0994H679.988V51.2794ZM679.988 38.4596H692.816V51.2794H679.988V38.4596ZM692.816 51.2794H705.643V64.0994H692.816V51.2794ZM692.816 64.0994H705.643V76.9192H692.816V64.0994ZM692.816 76.9192H705.643V89.7392H692.816V76.9192ZM718.47 102.559H705.643L731.299 115.379H718.47L718.47 102.559ZM718.47 38.4596H731.299V51.2794H718.47V38.4596ZM782.641 0H795.469V12.8199H782.641V0ZM795.469 0H808.296V12.8199H795.469V0ZM795.469 12.8199H808.296V25.6398H795.469V12.8199ZM795.469 25.6398H808.296V38.4596H795.469V25.6398ZM795.469 38.4596H808.296V51.2794H795.469V38.4596ZM795.469 51.2794H808.296V64.0994H795.469V51.2794ZM795.469 64.0994H808.296V76.9192H795.469V64.0994ZM782.641 64.0994H795.469V76.9192H782.641V64.0994ZM782.641 76.9192H795.469V89.7392H782.641V76.9192ZM782.641 89.7392H795.469V102.559H782.641V89.7392ZM782.641 102.559H795.469V115.379H782.641V102.559ZM782.641 115.379H795.469V128.199H782.641V115.379ZM795.469 115.379H808.296V128.199H795.469V115.379ZM795.469 102.559H808.296V115.379H795.469V102.559ZM795.469 89.7392H808.296V102.559H795.469V89.7392ZM795.469 76.9192H808.296V89.7392H795.469V76.9192ZM782.641 51.2794H795.469V64.0994H782.641V51.2794ZM782.641 38.4596H795.469V51.2794H782.641V38.4596ZM782.641 25.6398H795.469V38.4596H782.641V25.6398ZM782.641 12.8199H795.469V25.6398H782.641V12.8199Z" fill="#1E1E1E"/>
</svg>
